HIERARCHY
ROOT joint_0
{
	OFFSET 0.000000 0.000000 0.000000
	CHANNELS 6 Xposition Yposition Zposition Zrotation Yrotation Xrotation 
	JOINT joint_1
	{
		OFFSET -0.613770 -1.125488 108.300049
		CHANNELS 3 Zrotation Yrotation Xrotation
		JOINT joint_2
		{
			OFFSET -10.925537 -0.900513 98.259033
			CHANNELS 3 Zrotation Yrotation Xrotation
			JOINT joint_3
			{
				OFFSET -11.287842 0.313599 98.110962
				CHANNELS 3 Zrotation Yrotation Xrotation
				JOINT joint_4
				{
					OFFSET -2.124268 2.484680 136.491943
					CHANNELS 3 Zrotation Yrotation Xrotation
					JOINT joint_5
					{
						OFFSET 16.640869 1.801270 81.862061
						CHANNELS 3 Zrotation Yrotation Xrotation
						End Site
						{
							OFFSET 0.000000 0.000000 0.000000
						}
					}
				}
				JOINT joint_6
				{
					OFFSET 0.447998 -28.248108 77.258057
					CHANNELS 3 Zrotation Yrotation Xrotation
					JOINT joint_7
					{
						OFFSET 7.918701 -130.256348 -24.086060
						CHANNELS 3 Zrotation Yrotation Xrotation
						JOINT joint_8
						{
							OFFSET 62.431885 -29.384277 -258.572021
							CHANNELS 3 Zrotation Yrotation Xrotation
							JOINT joint_9
							{
								OFFSET 53.743164 -21.907532 -238.024963
								CHANNELS 3 Zrotation Yrotation Xrotation
								End Site
								{
									OFFSET 0.000000 0.000000 0.000000
								}
							}
						}
					}
				}
				JOINT joint_10
				{
					OFFSET -2.846924 31.052063 76.130981
					CHANNELS 3 Zrotation Yrotation Xrotation
					JOINT joint_11
					{
						OFFSET 9.073730 131.055603 -18.752930
						CHANNELS 3 Zrotation Yrotation Xrotation
						JOINT joint_12
						{
							OFFSET 52.981201 29.883301 -260.613037
							CHANNELS 3 Zrotation Yrotation Xrotation
							JOINT joint_13
							{
								OFFSET 62.237793 15.935547 -236.423035
								CHANNELS 3 Zrotation Yrotation Xrotation
								End Site
								{
									OFFSET 0.000000 0.000000 0.000000
								}
							}
						}
					}
				}
			}
		}
	}
	JOINT joint_14
	{
		OFFSET 22.046143 -72.816772 -98.122925
		CHANNELS 3 Zrotation Yrotation Xrotation
		JOINT joint_15
		{
			OFFSET -23.673828 -54.692932 -469.927032
			CHANNELS 3 Zrotation Yrotation Xrotation
			JOINT joint_16
			{
				OFFSET -34.875244 -46.505249 -395.890999
				CHANNELS 3 Zrotation Yrotation Xrotation
				JOINT joint_17
				{
					OFFSET 168.486328 14.224182 -74.182999
					CHANNELS 3 Zrotation Yrotation Xrotation
					End Site
					{
						OFFSET 0.000000 0.000000 0.000000
					}
				}
			}
		}
	}
	JOINT joint_18
	{
		OFFSET -1.731934 82.408569 -92.846924
		CHANNELS 3 Zrotation Yrotation Xrotation
		JOINT joint_19
		{
			OFFSET -6.908936 32.203369 -472.535034
			CHANNELS 3 Zrotation Yrotation Xrotation
			JOINT joint_20
			{
				OFFSET -13.963135 23.196533 -399.207993
				CHANNELS 3 Zrotation Yrotation Xrotation
				JOINT joint_21
				{
					OFFSET 168.417725 19.834229 -73.041004
					CHANNELS 3 Zrotation Yrotation Xrotation
					End Site
					{
						OFFSET 0.000000 0.000000 0.000000
					}
				}
			}
		}
	}
}
MOTION
Frames: 15
Frame Time: 0.016667
-3101.219482 1042.326294 1060.484985 -1.333639 0.099113 -1.595541 1.277934 2.133342 2.842559 0.889844 -0.359106 -0.643147 1.007444 0.469447 0.362328 0.105148 1.721576 -0.702260 0.000000 0.000000 0.000000 1.520214 2.771598 0.401613 -0.206674 3.099194 0.490682 0.128403 -0.381790 0.410523 0.000000 0.000000 0.000000 2.642743 1.022663 -2.504743 -0.330058 0.558335 -1.809242 0.409609 1.698991 1.124815 0.000000 0.000000 0.000000 1.239002 -7.238007 5.878313 0.395034 3.743544 -0.458241 0.659853 1.076777 0.194174 0.000000 0.000000 0.000000 0.393995 -4.986725 1.180607 1.025193 3.264619 -0.696849 0.812178 0.118083 0.336047 0.000000 0.000000 0.000000 
-3101.256348 1042.139038 1060.459961 -1.383778 0.064125 -1.582141 1.283985 2.158237 2.844541 0.895000 -0.364986 -0.642780 1.012318 0.477311 0.361030 0.107861 1.732392 -0.716381 0.000000 0.000000 0.000000 1.523779 2.785359 0.401228 -0.211101 3.113615 0.477205 0.129200 -0.393057 0.409365 0.000000 0.000000 0.000000 2.635812 1.026269 -2.518129 -0.330895 0.562511 -1.817573 0.412096 1.701219 1.133788 0.000000 0.000000 0.000000 1.254412 -7.210377 5.880654 0.412594 3.749109 -0.460360 0.675694 1.091532 0.199764 0.000000 0.000000 0.000000 0.411179 -4.951415 1.182971 1.040767 3.278006 -0.703115 0.825994 0.109547 0.342999 0.000000 0.000000 0.000000 
-3101.289062 1041.947021 1060.430054 -1.428818 0.035794 -1.568680 1.286952 2.176140 2.847684 0.897020 -0.370259 -0.643683 1.014431 0.482667 0.361446 0.110910 1.746864 -0.732554 0.000000 0.000000 0.000000 1.526479 2.797021 0.401458 -0.214563 3.125725 0.466164 0.128923 -0.399245 0.405545 0.000000 0.000000 0.000000 2.630662 1.031789 -2.531861 -0.331908 0.568556 -1.829514 0.415401 1.700284 1.146694 0.000000 0.000000 0.000000 1.268849 -7.192171 5.884016 0.427893 3.759942 -0.464983 0.689581 1.107902 0.204368 0.000000 0.000000 0.000000 0.425923 -4.926699 1.187510 1.055292 3.298360 -0.712849 0.838011 0.096633 0.349688 0.000000 0.000000 0.000000 
-3101.307617 1041.755981 1060.396973 -1.473061 0.008584 -1.553704 1.288649 2.191318 2.850671 0.897837 -0.375325 -0.644603 1.015274 0.489442 0.361305 0.113921 1.761825 -0.748575 0.000000 0.000000 0.000000 1.528691 2.806455 0.403367 -0.217530 3.135385 0.455917 0.128237 -0.403202 0.400835 0.000000 0.000000 0.000000 2.624639 1.037343 -2.544424 -0.333225 0.575002 -1.844303 0.419477 1.698308 1.162819 0.000000 0.000000 0.000000 1.283282 -7.175808 5.886376 0.442674 3.773691 -0.471148 0.703083 1.125097 0.208734 0.000000 0.000000 0.000000 0.440470 -4.904269 1.191396 1.070097 3.323006 -0.724500 0.849781 0.080138 0.356689 0.000000 0.000000 0.000000 
-3101.291992 1041.574707 1060.359985 -1.522791 -0.035277 -1.533199 1.291368 2.226480 2.848664 0.899791 -0.383825 -0.643996 1.016978 0.500900 0.360896 0.117137 1.773527 -0.765169 0.000000 0.000000 0.000000 1.531422 2.813511 0.405119 -0.220072 3.142759 0.446724 0.128100 -0.409830 0.397462 0.000000 0.000000 0.000000 2.615062 1.039924 -2.554725 -0.335361 0.579287 -1.862937 0.424241 1.696018 1.181661 0.000000 0.000000 0.000000 1.298934 -7.138378 5.882748 0.460608 3.785028 -0.476676 0.719179 1.144333 0.214054 0.000000 0.000000 0.000000 0.458549 -4.860373 1.188007 1.086543 3.346695 -0.734982 0.863152 0.062089 0.364566 0.000000 0.000000 0.000000 
-3101.245117 1041.406738 1060.322021 -1.577640 -0.097062 -1.505883 1.295637 2.284492 2.841345 0.903265 -0.394537 -0.642756 1.019933 0.515831 0.359202 0.120663 1.778759 -0.782480 0.000000 0.000000 0.000000 1.537276 2.819237 0.407511 -0.222649 3.149361 0.437764 0.129305 -0.422782 0.397419 0.000000 0.000000 0.000000 2.598399 1.039110 -2.559681 -0.338735 0.581838 -1.888100 0.429832 1.692574 1.203947 0.000000 0.000000 0.000000 1.316180 -7.077509 5.870942 0.482407 3.791311 -0.480430 0.737986 1.169024 0.220090 0.000000 0.000000 0.000000 0.479743 -4.793912 1.174195 1.103977 3.369207 -0.741281 0.877706 0.044272 0.372929 0.000000 0.000000 0.000000 
-3101.164062 1041.249390 1060.280029 -1.637992 -0.175206 -1.473067 1.300937 2.361463 2.829703 0.907785 -0.407158 -0.640536 1.023679 0.534357 0.356678 0.124296 1.781177 -0.799951 0.000000 0.000000 0.000000 1.543249 2.822703 0.410213 -0.224749 3.153700 0.430043 0.130962 -0.438150 0.398380 0.000000 0.000000 0.000000 2.578505 1.035391 -2.561813 -0.342974 0.582298 -1.917317 0.436160 1.689156 1.229048 0.000000 0.000000 0.000000 1.334730 -6.995904 5.852968 0.507394 3.795191 -0.483280 0.759477 1.195452 0.227146 0.000000 0.000000 0.000000 0.504614 -4.706606 1.153104 1.123290 3.391379 -0.746490 0.894058 0.024869 0.382257 0.000000 0.000000 0.000000 
-3101.022705 1041.102661 1060.228027 -1.711243 -0.279784 -1.434303 1.307943 2.466891 2.813958 0.913413 -0.430681 -0.639566 1.028580 0.563898 0.354527 0.127260 1.789252 -0.814686 0.000000 0.000000 0.000000 1.547052 2.821921 0.415613 -0.226564 3.153114 0.421086 0.132161 -0.450572 0.398540 0.000000 0.000000 0.000000 2.559550 1.027675 -2.562840 -0.347453 0.578446 -1.943655 0.442520 1.692691 1.252528 0.000000 0.000000 0.000000 1.355841 -6.880941 5.830100 0.538251 3.796952 -0.488020 0.786885 1.215479 0.237321 0.000000 0.000000 0.000000 0.536655 -4.582551 1.127124 1.146616 3.409027 -0.755127 0.914057 -0.001186 0.393943 0.000000 0.000000 0.000000 
-3100.824219 1040.959229 1060.171021 -1.779935 -0.375592 -1.392239 1.310571 2.559988 2.794487 0.915418 -0.462718 -0.635860 1.029231 0.599078 0.350915 0.129682 1.813477 -0.828507 0.000000 0.000000 0.000000 1.541649 2.823390 0.423894 -0.227936 3.152941 0.413512 0.132823 -0.464241 0.395790 0.000000 0.000000 0.000000 2.552071 1.022756 -2.562884 -0.351070 0.575506 -1.964237 0.446114 1.693472 1.266082 0.000000 0.000000 0.000000 1.375612 -6.769675 5.804115 0.567940 3.793795 -0.494904 0.811778 1.241545 0.245898 0.000000 0.000000 0.000000 0.568056 -4.461101 1.100670 1.169001 3.416940 -0.772516 0.933965 -0.017479 0.404449 0.000000 0.000000 0.000000 
-3100.564453 1040.826416 1060.104980 -1.861980 -0.497612 -1.344494 1.315348 2.680585 2.771039 0.918992 -0.504650 -0.633338 1.031596 0.645110 0.348506 0.131751 1.843704 -0.841142 0.000000 0.000000 0.000000 1.532385 2.820610 0.434173 -0.228957 3.147568 0.404877 0.133022 -0.474587 0.392367 0.000000 0.000000 0.000000 2.544498 1.013800 -2.563212 -0.354773 0.568229 -1.981086 0.449544 1.700804 1.277351 0.000000 0.000000 0.000000 1.397899 -6.625259 5.773494 0.603465 3.788420 -0.503378 0.842501 1.261827 0.257505 0.000000 0.000000 0.000000 0.606779 -4.303071 1.069745 1.195590 3.420445 -0.793536 0.957727 -0.039868 0.417339 0.000000 0.000000 0.000000 
-3100.205811 1040.724121 1060.015015 -2.015575 -0.759981 -1.283176 1.339911 2.955023 2.739425 0.938428 -0.566801 -0.637609 1.050782 0.723441 0.349786 0.132040 1.858924 -0.843065 0.000000 0.000000 0.000000 1.534584 2.792675 0.449736 -0.230299 3.118198 0.384970 0.131959 -0.466086 0.391220 0.000000 0.000000 0.000000 2.513745 0.980061 -2.568800 -0.360627 0.538535 -1.994185 0.461101 1.747892 1.309846 0.000000 0.000000 0.000000 1.434765 -6.325462 5.733907 0.667632 3.788630 -0.513450 0.906174 1.235774 0.287370 0.000000 0.000000 0.000000 0.679407 -3.977161 1.024196 1.243412 3.432692 -0.805735 0.998650 -0.118340 0.444219 0.000000 0.000000 0.000000 
-3099.749756 1040.647217 1059.906982 -2.200116 -1.170900 -1.182008 1.364489 3.401679 2.676094 0.954223 -0.661793 -0.660467 1.069399 0.843493 0.361838 0.126918 1.863417 -0.817090 0.000000 0.000000 0.000000 1.482776 2.733021 0.472369 -0.229240 3.045824 0.357464 0.133034 -0.442406 0.405954 0.000000 0.000000 0.000000 2.471370 0.923290 -2.578638 -0.368084 0.486498 -2.000242 0.481065 1.837071 1.364089 0.000000 0.000000 0.000000 1.474903 -5.852121 5.656717 0.751559 3.784339 -0.528657 0.991727 1.173406 0.329863 0.000000 0.000000 0.000000 0.769698 -3.461387 0.937998 1.291871 3.416493 -0.814937 1.040437 -0.218143 0.473997 0.000000 0.000000 0.000000 
-3099.193604 1040.601074 1059.776001 -2.456940 -1.722722 -1.065430 1.408448 4.003851 2.605712 0.985213 -0.776222 -0.692107 1.104452 0.992784 0.377501 0.119981 1.852912 -0.780270 0.000000 0.000000 0.000000 1.441677 2.648677 0.496616 -0.227684 2.950104 0.323306 0.132742 -0.399356 0.422703 0.000000 0.000000 0.000000 2.406222 0.842523 -2.590153 -0.378274 0.413022 -2.004901 0.508571 1.965762 1.437390 0.000000 0.000000 0.000000 1.528549 -5.222123 5.569566 0.863968 3.784698 -0.545899 1.109581 1.067658 0.390097 0.000000 0.000000 0.000000 0.893158 -2.776388 0.837387 1.360955 3.408027 -0.815555 1.099135 -0.368521 0.517010 0.000000 0.000000 0.000000 
-3098.493896 1040.618774 1059.584961 -2.972742 -2.507770 -0.996149 1.550484 4.845270 2.600645 1.103366 -0.889357 -0.719904 1.225817 1.159999 0.388349 0.121597 1.788933 -0.778829 0.000000 0.000000 0.000000 1.617632 2.538175 0.504805 -0.231402 2.869151 0.275268 0.119228 -0.306616 0.401400 0.000000 0.000000 0.000000 2.267724 0.712744 -2.603664 -0.397179 0.300382 -2.026694 0.550320 2.161646 1.548534 0.000000 0.000000 0.000000 1.641654 -4.364739 5.549320 1.056221 3.827595 -0.554350 1.321133 0.854020 0.500175 0.000000 0.000000 0.000000 1.127315 -1.850513 0.791506 1.532003 3.526609 -0.784004 1.240199 -0.707780 0.617683 0.000000 0.000000 0.000000 
-3097.848145 1040.644531 1059.267944 -3.951367 -3.795017 -0.990717 1.853427 6.170544 2.705655 1.362604 -0.993887 -0.745617 1.487271 1.350759 0.386448 0.141118 1.646462 -0.856023 0.000000 0.000000 0.000000 2.063799 2.348321 0.450246 -0.233903 2.762062 0.230800 0.092106 -0.130309 0.354551 0.000000 0.000000 0.000000 1.975171 0.516329 -2.588169 -0.431536 0.145091 -2.092427 0.614545 2.464951 1.718728 0.000000 0.000000 0.000000 1.859254 -3.030390 5.652898 1.398932 3.951388 -0.564640 1.702982 0.480969 0.697682 0.000000 0.000000 0.000000 1.565427 -0.406303 0.845103 1.884072 3.836357 -0.705192 1.532363 -1.318275 0.815237 0.000000 0.000000 0.000000 
